
<svg width="23px" height="31px" viewBox="0 0 23 31" version="1.1" xmlns="http://www.w3.org/2000/svg" xmlns:xlink="http://www.w3.org/1999/xlink">
    <g id="Page-1" stroke="none" stroke-width="1" fill="none" fill-rule="evenodd">
        <g id="Desktop-HD" transform="translate(-1027.000000, -4578.000000)" fill="#000000">
            <g id="pictograms/location/location" transform="translate(1022.000000, 4577.000000)">
                <path d="M16.3604,8.7197 C14.3534,8.7197 12.7204,10.3527 12.7204,12.3597 C12.7204,14.3667 14.3534,15.9997 16.3604,15.9997 C18.3674,15.9997 20.0004,14.3667 20.0004,12.3597 C20.0004,10.3527 18.3674,8.7197 16.3604,8.7197 M16.3604,0.9997 C22.6244,0.9997 27.7204,6.0957 27.7204,12.3597 C27.7204,20.4167 17.0684,31.1607 16.6154,31.6147 C16.5454,31.6847 16.4524,31.7197 16.3604,31.7197 C16.2734,31.7197 16.1874,31.6887 16.1184,31.6267 C15.6644,31.2137 5.0004,21.4147 5.0004,12.3597 C5.0004,6.0957 10.0964,0.9997 16.3604,0.9997 Z M16.3604,1.7197 C10.4934,1.7197 5.7204,6.4927 5.7204,12.3597 C5.7204,20.3407 14.7124,29.2917 16.3494,30.8557 C17.9614,29.1797 27.0004,19.4627 27.0004,12.3597 C27.0004,6.4927 22.2274,1.7197 16.3604,1.7197 Z M16.3604,7.9997 C18.7644,7.9997 20.7204,9.9557 20.7204,12.3597 C20.7204,14.7637 18.7644,16.7197 16.3604,16.7197 C13.9564,16.7197 12.0004,14.7637 12.0004,12.3597 C12.0004,9.9557 13.9564,7.9997 16.3604,7.9997 Z" id="Fill-3"></path>
            </g>
        </g>
    </g>
</svg>