
<svg width="25px" height="25px" viewBox="0 0 25 25" version="1.1" xmlns="http://www.w3.org/2000/svg" xmlns:xlink="http://www.w3.org/1999/xlink">
    <defs>
        <path d="M9.4,28 L4.4,28 L4.4,11.9 L9.4,11.9 L9.4,28 Z M6.9,9.8 C5.29837423,9.8 4,8.50162577 4,6.9 C4,5.29837423 5.29837423,4 6.9,4 C8.50162577,4 9.8,5.29837423 9.8,6.9 C9.8,7.66912782 9.49446516,8.40675417 8.95060967,8.95060967 C8.40675417,9.49446516 7.66912782,9.8 6.9,9.8 Z M28,28 L23,28 L23,20.2 C23,18.3 23,16 20.4,16 C17.8,16 17.4,18 17.4,20.1 L17.4,28.1 L12.4,28.1 L12.4,11.9 L17.2,11.9 L17.2,14.2 L17.3,14.2 C18.2286495,12.4939794 20.0613054,11.4801698 22,11.6 C27,11.6 28,14.9 28,19.2 L28,28 Z" id="path-1"></path>
    </defs>
    <g id="Page-1" stroke="none" stroke-width="1" fill="none" fill-rule="evenodd" opacity="0.631677964">
        <g id="Desktop-HD" transform="translate(-582.000000, -4629.000000)">
            <g id="Group-3" transform="translate(481.000000, 4572.000000)">
                <g id="icon/social/linkedin/32" transform="translate(97.500000, 53.500000)">
                    <mask id="mask-2" fill="white">
                        <use xlink:href="#path-1"></use>
                    </mask>
                    <use id="icon-color" fill="#000000" fill-rule="evenodd" xlink:href="#path-1"></use>
                </g>
            </g>
        </g>
    </g>
</svg>