
<svg width="23px" height="31px" viewBox="0 0 23 31" version="1.1" xmlns="http://www.w3.org/2000/svg" xmlns:xlink="http://www.w3.org/1999/xlink">
    <g id="Page-1" stroke="none" stroke-width="1" fill="none" fill-rule="evenodd">
        <g id="Desktop-HD" transform="translate(-1026.000000, -4719.000000)" fill="#000000">
            <g id="pictograms/deployment/rocket" transform="translate(1021.000000, 4718.000000)">
                <path d="M13.1342,25.1245 L13.1348,25.12455 L13.3127903,25.2355449 C13.9530819,25.6631444 14.4110333,26.3005333 14.6127,27.0522 C14.8327,27.8712 14.7197,28.7262 14.2957,29.4612 L14.2507,29.5382 C13.7747,30.3632 12.5017,31.0852 11.3197,31.6832 C11.2677,31.7102 11.2117,31.7222 11.1577,31.7222 C11.0257,31.7222 10.8997,31.6502 10.8357,31.5252 C10.7457,31.3472 10.8177,31.1312 10.9947,31.0412 C11.5957,30.7372 13.1947,29.9292 13.6267,29.1782 L13.6727,29.1002 C13.9997,28.5332 14.0867,27.8712 13.9177,27.2382 C13.7477,26.6042 13.3417,26.0762 12.7737,25.7482 L12.7678,25.74455 L12.600374,25.656589 C12.07409,25.40548 11.4809,25.3495 10.9112,25.5025 C10.2782,25.6725 9.7492,26.0785 9.4212,26.6465 L9.4202,26.6475 L9.3742,26.7255 C8.9422,27.4755 9.0412,29.2625 9.0792,29.9345 C9.0902,30.1335 8.9382,30.3025 8.7402,30.3145 L8.7192,30.3145 C8.5302,30.3145 8.3712,30.1665 8.3602,29.9745 C8.2862,28.6525 8.2752,27.1895 8.7522,26.3635 L8.7992,26.2845 C9.2212,25.5515 9.9062,25.0265 10.7242,24.8075 C11.5432,24.5885 12.3992,24.6995 13.1342,25.1245 Z M26.9048,1.2203 C27.4138,1.5133 27.7168,2.0393 27.7168,2.6273 L27.7168,8.9333 C27.7158,12.4853 26.6218,15.8883 24.5508,18.7743 L21.1148,23.5633 L23.6608,27.9723 C23.7088,28.0553 23.7218,28.1533 23.6968,28.2453 C23.6718,28.3383 23.6118,28.4163 23.5288,28.4643 L19.5188,30.7763 C19.4628,30.8093 19.4008,30.8243 19.3398,30.8243 C19.2148,30.8243 19.0938,30.7603 19.0278,30.6443 C18.9278,30.4723 18.9868,30.2523 19.1598,30.1523 L22.8578,28.0203 L20.3758,23.7223 C20.3048,23.5993 20.3128,23.4473 20.3948,23.3323 L23.9658,18.3543 C25.9478,15.5913 26.9968,12.3343 26.9968,8.9333 L26.9968,2.6273 C26.9968,2.3003 26.8278,2.0073 26.5448,1.8433 C26.2628,1.6803 25.9258,1.6813 25.6438,1.8433 L20.1808,4.9973 C17.2358,6.6983 14.9378,9.2343 13.5368,12.3323 L11.0118,17.9143 C10.9528,18.0433 10.8248,18.1263 10.6838,18.1263 L5.7198,18.1263 L5.7218,22.4063 C5.7218,22.6053 5.5608,22.7663 5.3618,22.7663 C5.1628,22.7663 5.0018,22.6053 5.0018,22.4063 L4.9998,17.7663 C4.9998,17.6713 5.0378,17.5793 5.1058,17.5113 C5.1728,17.4443 5.2638,17.4063 5.3598,17.4063 L10.4508,17.4063 L12.8808,12.0353 C14.3438,8.8003 16.7438,6.1503 19.8198,4.3743 L25.2828,1.2203 C25.7908,0.9273 26.3968,0.9273 26.9048,1.2203 Z M21.7092,10.2222 L21.7092,10.2232 C23.2342,11.1032 23.7592,13.0602 22.8792,14.5852 C22.4522,15.3242 21.7632,15.8522 20.9392,16.0732 C20.6642,16.1472 20.3852,16.1832 20.1072,16.1832 C19.5542,16.1832 19.0082,16.0382 18.5152,15.7542 C17.7772,15.3272 17.2482,14.6392 17.0282,13.8152 C16.8062,12.9912 16.9202,12.1302 17.3462,11.3912 C18.2272,9.8672 20.1832,9.3452 21.7092,10.2222 Z M20.1172,10.5152 C19.2612,10.5152 18.4282,10.9592 17.9702,11.7522 C17.6392,12.3242 17.5522,12.9902 17.7232,13.6292 C17.8942,14.2672 18.3042,14.8002 18.8762,15.1302 C19.4472,15.4602 20.1132,15.5492 20.7532,15.3782 C21.3912,15.2072 21.9252,14.7972 22.2552,14.2252 C22.9087833,13.0934083 22.562226,11.6539517 21.492771,10.9357092 L21.3492,10.8462 C20.9612,10.6222 20.5362,10.5152 20.1172,10.5152 Z" id="Fill-9"></path>
            </g>
        </g>
    </g>
</svg>