
<svg width="31px" height="31px" viewBox="0 0 31 31" version="1.1" xmlns="http://www.w3.org/2000/svg" xmlns:xlink="http://www.w3.org/1999/xlink">
    <g id="Page-1" stroke="none" stroke-width="1" fill="none" fill-rule="evenodd">
        <g id="Desktop-HD" transform="translate(-1023.000000, -4659.000000)" fill="#000000">
            <g id="pictograms/electronics/phone" transform="translate(1022.000000, 4658.000000)">
                <path d="M31,31 L1.72,31 L1.72,7.721 L4,7.721 L4,27.376 C4,28.678 5.059,29.736 6.36,29.736 L10.36,29.736 C11.661,29.736 12.72,28.678 12.72,27.376 L12.72,7.721 L31,7.721 L31,31 Z M4.72,5.376 C4.72,4.472 5.456,3.736 6.36,3.736 L10.36,3.736 C11.264,3.736 12,4.472 12,5.376 L12,27.376 C12,28.28 11.264,29.016 10.36,29.016 L6.36,29.016 C5.456,29.016 4.72,28.28 4.72,27.376 L4.72,5.376 Z M31.36,7 L29.72,7 L29.72,1.36 C29.72,1.161 29.559,1 29.36,1 C29.161,1 29,1.161 29,1.36 L29,7 L12.72,7 L12.72,5.376 C12.72,4.074 11.661,3.016 10.36,3.016 L6.36,3.016 C5.059,3.016 4,4.074 4,5.376 L4,7 L1.36,7 C1.161,7 1,7.161 1,7.36 L1,31.36 C1,31.56 1.161,31.721 1.36,31.721 L31.36,31.721 C31.559,31.721 31.72,31.56 31.72,31.36 L31.72,7.36 C31.72,7.161 31.559,7 31.36,7 L31.36,7 Z M15.72,19.9997 L28,19.9997 L28,10.7207 L15.72,10.7207 L15.72,19.9997 Z M15.36,20.7207 L28.36,20.7207 C28.559,20.7207 28.72,20.5597 28.72,20.3607 L28.72,10.3607 C28.72,10.1607 28.559,9.9997 28.36,9.9997 L15.36,9.9997 C15.161,9.9997 15,10.1607 15,10.3607 L15,20.3607 C15,20.5597 15.161,20.7207 15.36,20.7207 L15.36,20.7207 Z M28.3599,23 L22.3599,23 C22.1609,23 21.9999,23.161 21.9999,23.36 C21.9999,23.56 22.1609,23.721 22.3599,23.721 L28.3599,23.721 C28.5589,23.721 28.7199,23.56 28.7199,23.36 C28.7199,23.161 28.5589,23 28.3599,23" id="Fill-1"></path>
            </g>
        </g>
    </g>
</svg>