
<svg width="21px" height="16px" viewBox="0 0 21 16" version="1.1" xmlns="http://www.w3.org/2000/svg" xmlns:xlink="http://www.w3.org/1999/xlink">
    <defs>
        <path d="M22.275,7.8 C22.1609747,7.04698592 21.8790143,6.32926842 21.45,5.7 C20.8784008,5.16118611 20.134382,4.84232091 19.35,4.8 C16.425,4.65 12,4.65 12,4.65 L12,4.65 C12,4.65 7.575,4.65 4.65,4.875 C3.86132335,4.81870529 3.08946417,5.12193568 2.55,5.7 C2.10998003,6.32339209 1.82696275,7.04379971 1.725,7.8 C1.58688747,8.91990174 1.51176923,10.0466754 1.5,11.175 L1.5,12.75 C1.50793831,13.8784689 1.5830713,15.0054638 1.725,16.125 C1.8390253,16.8780141 2.12098575,17.5957316 2.55,18.225 C3.1957928,18.7878462 4.01855628,19.1063353 4.875,19.125 C6.525,19.275 12,19.35 12,19.35 C12,19.35 16.425,19.35 19.35,19.125 C20.134382,19.0826791 20.8784008,18.7638139 21.45,18.225 C21.89002,17.6016079 22.1730372,16.8812003 22.275,16.125 C22.4131125,15.0050983 22.4882308,13.8783246 22.5,12.75 L22.5,11.175 C22.4882308,10.0466754 22.4131125,8.91990174 22.275,7.8 L22.275,7.8 Z M9.825,14.7 L9.825,8.775 L15.525,11.7 L9.825,14.7 Z" id="path-1"></path>
    </defs>
    <g id="Page-1" stroke="none" stroke-width="1" fill="none" fill-rule="evenodd" opacity="0.631677964">
        <g id="Desktop-HD" transform="translate(-584.000000, -4684.000000)">
            <g id="Group-3" transform="translate(481.000000, 4572.000000)">
                <g id="icon/social/youtube/24" transform="translate(101.500000, 108.000000)">
                    <mask id="mask-2" fill="white">
                        <use xlink:href="#path-1"></use>
                    </mask>
                    <use id="icon-color" fill="#000000" fill-rule="evenodd" xlink:href="#path-1"></use>
                </g>
            </g>
        </g>
    </g>
</svg>