
<svg width="99px" height="109px" viewBox="0 0 99 109" version="1.1" xmlns="http://www.w3.org/2000/svg" xmlns:xlink="http://www.w3.org/1999/xlink">
    <g id="Page-1" stroke="none" stroke-width="1" fill="none" fill-rule="evenodd">
        <g id="shutterstock_313127174" transform="translate(-126.000000, -137.000000)">
            <g id="Group-3" transform="translate(126.008000, 137.275399)">
                <path d="M34.311,60.2016006 C33.88,60.4286006 33.371,60.6606006 32.764,60.9106006 C22.008,65.3326006 6.221,71.2656006 4.589,80.9686006 L-7.10542736e-15,108.259601 L98.503,108.259601 L93.914,80.9686006 C92.283,71.2656006 76.495,65.3326006 65.74,60.9106006 C64.935,60.5796006 64.304,60.2796006 63.796,59.9806006 L49.242,69.6776006 L34.311,60.2016006" id="Fill-17" fill="#343534"></path>
                <path d="M49.252,108.259601 L98.503,108.259601 L93.914,80.9686006 C92.283,71.2656006 76.495,65.3326006 65.74,60.9106006 C64.935,60.5796006 64.304,60.2796006 63.796,59.9806006 L49.252,69.6716006 L49.252,108.259601" id="Fill-18" fill="#1A1919"></path>
                <path d="M49.252,0 L49.252,103.957601 C32.495,104.145601 10.665,83.5746006 6.835,77.1886006 C4.548,73.3746006 13.959,68.5516006 16.154,66.1406006 C21.872,59.8596006 23.842,30.9006006 25.036,22.2146006 C25.951,15.5546006 28.303,8.85060062 33.563,5.48760062 C37.966,2.67260062 43.761,-0.0463993828 49.252,0" id="Fill-19" fill="#808180"></path>
                <path d="M49.252,0 L49.252,103.957601 C66.009,104.145601 87.839,83.5746006 91.668,77.1886006 C93.955,73.3746006 84.545,68.5516006 82.35,66.1406006 C76.632,59.8596006 74.662,30.9006006 73.468,22.2146006 C72.552,15.5546006 70.201,8.85060062 64.941,5.48760062 C60.537,2.67260062 54.743,-0.0463993828 49.252,0" id="Fill-20" fill="#343534"></path>
                <path d="M49.252,1.87560062 C42.716,2.16660062 36.336,5.47460062 33.853,9.06960062 C30.979,13.2316006 29.876,25.1976006 29.608,30.1306006 L30.643,77.3026006 C31.07,84.6156006 38.819,94.8126006 49.252,98.1226006 C49.252,56.2856006 49.252,33.3336006 49.252,1.87560062" id="Fill-21" fill="#636463"></path>
                <path d="M49.252,1.87560062 C55.788,2.16660062 62.168,5.47460062 64.651,9.06960062 C67.525,13.2316006 68.628,25.1976006 68.896,30.1306006 L67.86,77.3026006 C67.433,84.6156006 59.685,94.8126006 49.252,98.1226006 C49.252,56.2856006 49.252,33.3336006 49.252,1.87560062" id="Fill-22" fill="#4D4E4C"></path>
                <path d="M56.597,59.6106006 C61.772,53.6466006 64.412,50.3276006 66.425,43.7686006 L67.502,29.0116006 C61.575,26.1376006 55.667,26.2156006 49.252,26.2156006 L49.252,61.9406006 C51.259,61.9376006 55.315,61.0916006 56.597,59.6106006 Z" id="Fill-23" fill="#DEAF71"></path>
                <path d="M39.0939178,59.6106006 C43.9144658,53.6466006 46.3736438,50.3276006 48.2487671,43.7686006 L49.252,29.0116006 C43.7309589,26.1376006 38.2276164,26.2156006 32.252,26.2156006 L32.252,61.9406006 C34.1215342,61.9376006 37.899726,61.0916006 39.0939178,59.6106006 Z" id="Fill-23" fill="#DEAF71" transform="translate(40.752000, 44.077895) scale(-1, 1) translate(-40.752000, -44.077895) "></path>
            </g>
        </g>
    </g>
</svg>