
<svg width="103px" height="108px" viewBox="0 0 103 108" version="1.1" xmlns="http://www.w3.org/2000/svg" xmlns:xlink="http://www.w3.org/1999/xlink">
    <g id="Page-1" stroke="none" stroke-width="1" fill="none" fill-rule="evenodd">
        <g id="Arab2" transform="translate(-2.000000, -4.000000)">
            <g id="Group-2" transform="translate(2.000000, 4.000000)">
                <path d="M35.515,60.328 L10.446,69.747 C6.774,71.127 4.454,74.17 3.8,78.052 L0,107.266 L102.052,107.266 L98.253,78.052 C97.6,74.17 95.279,71.127 91.607,69.747 L66.539,60.328 L35.515,60.328" id="Fill-125" fill="#CB9651"></path>
                <path d="M51.074,107.263 L102.052,107.263 L98.253,78.052 C97.599,74.17 95.279,71.127 91.607,69.747 L66.538,60.328 L51.074,60.328 L51.074,107.263" id="Fill-126" fill="#A2783C"></path>
                <path d="M34.775,60.613 C37.012,58.488 38.466,55.9 39.159,52.863 L62.989,52.863 C63.681,55.9 65.134,58.488 67.372,60.613 L51.074,72.963 L34.775,60.613" id="Fill-127" fill="#A35833"></path>
                <path d="M51.074,52.863 L62.989,52.863 C63.681,55.9 65.134,58.488 67.372,60.613 L51.074,72.963 L51.074,52.863" id="Fill-128" fill="#844425"></path>
                <path d="M51.074,4.026 C44.79,4.029 38.507,5.912 34.59,9.676 C30.302,13.796 30.288,19.169 30.487,24.477 C30.548,26.127 30.703,27.891 30.981,30.01 L29.05,31.399 C29.026,35.291 29.81,39.068 31.185,42.763 L33.088,43.763 L33.493,45.173 C35.083,50.725 40.805,58.096 46.795,60.561 C49.61,61.029 52.537,61.029 55.352,60.561 C61.341,58.096 67.063,50.725 68.655,45.173 L69.059,43.763 L70.961,42.763 C72.337,39.068 73.12,35.291 73.097,31.399 L71.166,30.01 C71.444,27.891 71.599,26.127 71.66,24.477 C71.858,19.169 71.845,13.796 67.556,9.676 C63.639,5.912 57.356,4.029 51.074,4.026" id="Fill-129" fill="#BB653C"></path>
                <path d="M51.074,60.912 C52.509,60.912 53.944,60.795 55.352,60.561 C61.341,58.096 67.063,50.725 68.655,45.173 L69.059,43.763 L70.961,42.763 C72.337,39.068 73.12,35.291 73.097,31.399 L71.166,30.01 C71.444,27.891 71.599,26.127 71.66,24.477 C71.858,19.169 71.845,13.796 67.556,9.676 C63.639,5.912 57.356,4.029 51.074,4.026 L51.074,60.912" id="Fill-130" fill="#A35833"></path>
                <path d="M30.152,30.605 C29.968,25.701 29.053,19.154 30.177,14.307 C30.36,13.517 32.658,7.861 34.841,6.157 C38.579,3.241 45.732,-0.604 55.475,2.227 C60.776,2.24 60.442,1.934 64.802,4.326 C68.132,6.153 69.836,7.982 70.971,11.167 C73.383,17.939 72.126,24.301 71.769,30.443 L70.412,31.16 L68.096,37.263 C68.038,35.22 70.502,26.724 65.767,22.934 C63.086,21.58 39.734,22.223 35.83,22.883 C31.454,25.614 33.973,34.748 33.984,36.733 L31.593,31.202 L30.152,30.605" id="Fill-131" fill="#343534"></path>
                <path d="M51.074,1.356 C52.474,1.501 53.943,1.781 55.475,2.226 C60.776,2.24 60.442,1.934 64.801,4.326 C68.132,6.153 69.836,7.982 70.971,11.167 C73.383,17.939 72.126,24.301 71.769,30.443 L70.412,31.16 L68.096,37.263 C68.038,35.22 70.502,26.724 65.767,22.934 C64.414,22.251 57.798,22.076 51.074,22.155 L51.074,1.356" id="Fill-132" fill="#1A1919"></path>
                <polyline id="Fill-133" fill="#343534" points="45.01 48.344 51.073 48.711 51.074 44.482 45.466 44.525 42.719 46.349 42.461 49.763 43.413 55.205 43.373 55.541 41.408 49.635 41.117 46.137 36.146 42.207 33.384 28.398 30.785 28.407 30.981 30.025 33.734 41.945 33.088 43.778 36.606 57.729 45.938 63.248 51.074 63.247 51.074 52.067 48.013 52.067 47.745 53.511 45.219 53.145 45.01 48.344"></polyline>
                <polyline id="Fill-134" fill="#1A1919" points="57.136 48.344 51.074 48.711 51.073 44.482 56.68 44.525 59.427 46.349 59.685 49.763 58.733 55.205 58.773 55.541 60.739 49.635 61.03 46.137 66.001 42.207 68.762 28.398 71.362 28.407 71.165 30.025 68.412 41.945 69.058 43.778 65.539 57.729 56.208 63.248 51.073 63.247 51.073 52.067 54.133 52.067 54.402 53.511 56.927 53.145 57.136 48.344"></polyline>
                <path d="M28.586,24.627 C28.531,23.002 27.523,19.941 28.48,18.727 C30.601,16.034 28.352,11.418 33.463,6.773 C38.024,1.978 44.884,0 51.074,0 L51.074,24.987 L41.804,23.07 L34.607,27.25 C33.325,47.353 38.874,48.143 39.262,59.248 L38.863,94.408 L28.768,85.205 L26.471,77.934 L15.436,67.873 C20.056,63.783 28.84,32.124 28.586,24.627" id="Fill-135" fill="#E4BC83"></path>
                <path d="M73.56,24.627 C73.616,23.002 74.623,19.941 73.666,18.727 C71.545,16.034 73.795,11.418 68.683,6.773 C64.122,1.978 57.262,0 51.074,0 L51.074,24.987 L60.343,23.07 L67.539,27.25 C68.822,47.353 63.272,48.143 62.884,59.248 L63.284,94.408 L73.378,85.205 L75.676,77.934 L86.711,67.873 C82.09,63.783 73.306,32.124 73.56,24.627" id="Fill-136" fill="#DDA55D"></path>
                <path d="M29.287,14.271 L29.784,14.271 C29.275,14.048 28.916,13.539 28.916,12.951 L28.916,11.462 C28.916,10.672 29.564,10.024 30.355,10.024 L71.792,10.024 C72.583,10.024 73.23,10.672 73.23,11.462 L73.23,12.951 C73.23,13.539 72.871,14.048 72.363,14.271 L72.859,14.271 C73.65,14.271 74.297,14.917 74.297,15.708 L74.297,17.197 C74.297,17.988 73.65,18.635 72.859,18.635 L29.287,18.635 C28.497,18.635 27.85,17.988 27.85,17.197 L27.85,15.708 C27.85,14.917 28.497,14.271 29.287,14.271" id="Fill-137" fill="#343534"></path>
                <path d="M51.074,14.757 L51.074,18.635 L29.287,18.635 C28.497,18.635 27.85,17.988 27.85,17.197 L27.85,15.708 C27.85,15.344 27.987,15.011 28.212,14.757 L51.074,14.757 Z M29.166,13.758 C29.009,13.527 28.916,13.25 28.916,12.951 L28.916,11.462 C28.916,10.672 29.564,10.024 30.355,10.024 L51.074,10.024 L51.074,13.758 L29.166,13.758 L29.166,13.758 Z" id="Fill-138" fill="#414241"></path>
            </g>
        </g>
    </g>
</svg>