
<svg width="103px" height="108px" viewBox="0 0 103 108" version="1.1" xmlns="http://www.w3.org/2000/svg" xmlns:xlink="http://www.w3.org/1999/xlink">
    <g id="Page-1" stroke="none" stroke-width="1" fill="none" fill-rule="evenodd">
        <g id="Arab1" transform="translate(-2.000000, -3.000000)">
            <g id="Group" transform="translate(2.000000, 3.000000)">
                <path d="M35.515,60.328 L10.446,69.748 C6.774,71.127 4.453,74.17 3.8,78.052 L-2.84217094e-14,107.267 L102.051,107.267 L98.252,78.052 C97.599,74.17 95.278,71.127 91.606,69.748 L66.538,60.329 L35.515,60.328" id="Fill-70" fill="#B4B5B4"></path>
                <path d="M51.073,107.263 L102.051,107.263 L98.252,78.052 C97.599,74.17 95.278,71.127 91.606,69.748 L66.538,60.329 L51.073,60.329 L51.073,107.263" id="Fill-71" fill="#9E9F9E"></path>
                <path d="M34.774,60.614 C37.012,58.489 38.465,55.901 39.158,52.864 L62.988,52.864 C63.68,55.901 65.133,58.489 67.372,60.614 L51.073,72.964 L34.774,60.614" id="Fill-72" fill="#A35833"></path>
                <path d="M51.073,52.864 L62.988,52.864 C63.68,55.901 65.133,58.489 67.372,60.614 L51.073,72.964 L51.073,52.864" id="Fill-73" fill="#844425"></path>
                <path d="M51.073,4.027 C44.789,4.03 38.506,5.912 34.59,9.676 C30.301,13.797 30.288,19.169 30.487,24.478 C30.547,26.127 30.703,27.891 30.98,30.01 L29.049,31.4 C29.026,35.291 29.809,39.069 31.185,42.763 L33.087,43.763 L33.492,45.173 C35.082,50.725 40.804,58.096 46.794,60.561 C49.609,61.03 52.536,61.03 55.351,60.561 C61.341,58.096 67.063,50.725 68.654,45.173 L69.058,43.763 L70.961,42.763 C72.336,39.069 73.12,35.291 73.096,31.4 L71.165,30.01 C71.443,27.891 71.598,26.127 71.66,24.478 C71.858,19.169 71.844,13.797 67.556,9.676 C63.639,5.912 57.356,4.03 51.073,4.027" id="Fill-74" fill="#BB653C"></path>
                <path d="M51.073,60.913 C52.508,60.913 53.944,60.796 55.351,60.561 C61.341,58.096 67.063,50.725 68.654,45.173 L69.058,43.763 L70.961,42.763 C72.336,39.069 73.12,35.291 73.096,31.4 L71.165,30.01 C71.443,27.891 71.598,26.127 71.66,24.478 C71.858,19.169 71.844,13.797 67.556,9.676 C63.639,5.912 57.356,4.03 51.073,4.027 L51.073,60.913" id="Fill-75" fill="#A35833"></path>
                <path d="M28.585,24.628 C28.53,23.002 27.523,19.942 28.479,18.727 C30.601,16.034 28.351,11.418 33.462,6.774 C38.023,1.978 44.884,0 51.073,0 L51.073,24.988 L41.803,23.071 L34.606,27.25 C33.325,47.353 38.873,48.143 39.262,59.248 L38.862,94.409 L28.768,85.205 L26.47,77.934 L15.435,67.873 C20.056,63.783 28.84,32.124 28.585,24.628" id="Fill-76" fill="#E4E4E3"></path>
                <path d="M73.56,24.628 C73.616,23.002 74.622,19.942 73.665,18.727 C71.544,16.034 73.794,11.418 68.683,6.774 C64.122,1.978 57.261,0 51.073,0 L51.073,24.988 L60.342,23.071 L67.539,27.25 C68.821,47.353 63.272,48.143 62.883,59.248 L63.284,94.409 L73.377,85.205 L75.675,77.934 L86.71,67.873 C82.089,63.783 73.305,32.124 73.56,24.628" id="Fill-77" fill="#CBCCCB"></path>
                <path d="M29.287,14.271 L29.783,14.271 C29.275,14.049 28.915,13.54 28.915,12.952 L28.915,11.463 C28.915,10.672 29.563,10.025 30.354,10.025 L71.791,10.025 C72.582,10.025 73.23,10.672 73.23,11.463 L73.23,12.952 C73.23,13.54 72.871,14.049 72.363,14.271 L72.859,14.271 C73.65,14.271 74.296,14.918 74.296,15.709 L74.296,17.197 C74.296,17.989 73.65,18.635 72.859,18.635 L29.287,18.635 C28.496,18.635 27.849,17.989 27.849,17.197 L27.849,15.709 C27.849,14.918 28.496,14.271 29.287,14.271" id="Fill-78" fill="#343534"></path>
                <path d="M51.073,14.757 L51.073,18.635 L29.287,18.635 C28.496,18.635 27.849,17.989 27.849,17.197 L27.849,15.709 C27.849,15.344 27.987,15.011 28.211,14.757 L51.073,14.757 Z M29.165,13.759 C29.008,13.528 28.915,13.25 28.915,12.952 L28.915,11.463 C28.915,10.672 29.563,10.025 30.354,10.025 L51.073,10.025 L51.073,13.759 L29.165,13.759 L29.165,13.759 Z" id="Fill-79" fill="#414241"></path>
            </g>
        </g>
    </g>
</svg>